HIERARCHY
ROOT ui
{
	 OFFSET 0 0 0
	 CHANNELS 3 XPosition YPosition Z Position
	 EndSite
	 {
	 OFFSET 0 -1 0
	 }
}
ROOT li
{
	 OFFSET 0 0 0
	 CHANNELS 3 XPosition YPosition Z Position
	 EndSite
	 {
	 OFFSET 0 -1 0
	 }
}
ROOT ul
{
	 OFFSET 0 0 0
	 CHANNELS 3 XPosition YPosition Z Position
	 EndSite
	 {
	 OFFSET 0 -1 0
	 }
}
ROOT ll
{
	 OFFSET 0 0 0
	 CHANNELS 3 XPosition YPosition Z Position
	 EndSite
	 {
	 OFFSET 0 -1 0
	 }
}
ROOT tt
{
	 OFFSET 0 0 0
	 CHANNELS 3 XPosition YPosition Z Position
	 EndSite
	 {
	 OFFSET 0 -1 0
	 }
}
ROOT tb
{
	 OFFSET 0 0 0
	 CHANNELS 3 XPosition YPosition Z Position
	 EndSite
	 {
	 OFFSET 0 -1 0
	 }
}
ROOT td
{
	 OFFSET 0 0 0
	 CHANNELS 3 XPosition YPosition Z Position
	 EndSite
	 {
	 OFFSET 0 -1 0
	 }
}
ROOT v
{
	 OFFSET 0 0 0
	 CHANNELS 3 XPosition YPosition Z Position
	 EndSite
	 {
	 OFFSET 0 -1 0
	 }
}
ROOT bn
{
	 OFFSET 0 0 0
	 CHANNELS 3 XPosition YPosition Z Position
	 EndSite
	 {
	 OFFSET 0 -1 0
	 }
}
MOTION
Frames: 22
Frame Time: 0.002
0.03023093605041504	0.0016159240007400512	0		0.4673572387695312	-2.309458740234375	0		-1.1037607421875	0.26827645874023437	0		-0.5736630859375	-2.624313720703125	0		1.7438509521484375	-0.6150974731445312	0		3.31394921875	0.2796029052734375	0		4.60100634765625	0.3376021423339844	0		6.0062412109375	0.73923095703125	0		-0.32708541870117186	5.8378759765625	0		
0.0029895119667053224	-0.0016601500511169434	0		0.46583880615234374	-2.338113037109375	0		-1.116156494140625	0.2557133331298828	0		-0.5767938842773438	-2.6289912109375	0		1.761386474609375	-0.6349848022460938	0		3.316675048828125	0.27502334594726563	0		4.59302490234375	0.35225396728515623	0		6.006806640625	0.7385162353515625	0		-0.3265703735351563	5.83714794921875	0		
7.316589951515197E-4	-0.005296767234802246	0		0.4886276550292969	-2.34611328125	0		-1.1235032958984374	0.24710115051269532	0		-0.6108298950195312	-2.626161865234375	0		1.736099853515625	-0.6421817016601562	0		3.307543701171875	0.28065191650390625	0		4.5930126953125	0.3658034362792969	0		6.00736181640625	0.7378359375	0		-0.3260608520507812	5.83644873046875	0		
-0.03434829711914063	0.00460453987121582	0		0.44165667724609375	-2.3360048828125	0		-1.122753173828125	0.24639749145507814	0		-0.5729674682617187	-2.62841162109375	0		1.7397364501953125	-0.6527989501953125	0		3.31330712890625	0.2810747375488281	0		4.59784912109375	0.3713001403808594	0		6.0115634765625	0.7526262817382813	0		-0.32556753540039063	5.83578173828125	0		
0.005262854099273681	-0.003612313985824585	0		0.47933956909179687	-2.346169921875	0		-1.1270859375	0.2428084259033203	0		-0.6281072998046875	-2.62719384765625	0		1.7374273681640624	-0.6572936401367188	0		3.295419921875	0.3068909912109375	0		4.60106298828125	0.40384912109375	0		6.01207373046875	0.7520185546875	0		-0.45840576171875	5.81619580078125	0		
-0.0039058361053466795	0.005961058139801026	0		0.4972025146484375	-2.340990234375	0		-1.1396014404296875	0.2303839111328125	0		-0.5672838134765625	-2.625718017578125	0		1.7709893798828125	-0.6673056640625	0		3.30600634765625	0.301294677734375	0		4.61172216796875	0.40330575561523435	0		6.01255029296875	0.7514490966796875	0		-0.324661376953125	5.83455810546875	0		
-0.0032825849056243896	0.005423542976379395	0		0.46624017333984374	-2.32002197265625	0		-1.1521533203125	0.2190028533935547	0		-0.6025098266601563	-2.622727294921875	0		1.7742559814453125	-0.6928181762695312	0		3.3106943359375	0.3058221130371094	0		4.61154443359375	0.41695852661132815	0		6.01298974609375	0.7509225463867187	0		-0.32426116943359373	5.83400830078125	0		
-0.006763686180114746	0.00199124801158905	0		0.4924571838378906	-2.34889208984375	0		-1.09252734375	0.22256838989257813	0		-0.567932373046875	-2.628760009765625	0		1.807688720703125	-0.70375048828125	0		3.307172119140625	0.30050790405273436	0		4.60741455078125	0.43770281982421877	0		6.0133876953125	0.7504435424804687	0		-0.33805511474609373	5.8237177734375	0		
-0.006263308048248291	0.0015427839756011962	0		0.4789755554199219	-2.35311083984375	0		-1.164269287109375	0.20718132019042967	0		-0.5992354125976562	-2.621740966796875	0		1.8049541015625	-0.7210917358398438	0		3.30766259765625	0.3001683349609375	0		4.6119912109375	0.4433443908691406	0		6.0137392578125	0.7500142822265625	0		-0.4568995361328125	5.81406982421875	0		
0.0012599350214004517	0.00703322982788086	0		0.5085068054199219	-2.351939208984375	0		-1.16790283203125	0.2028048553466797	0		-0.5576821899414063	-2.6197841796875	0		1.8113018798828124	-0.72852978515625	0		3.343234375	0.3093335266113281	0		4.62059228515625	0.454958740234375	0		6.01404443359375	0.7496370849609375	0		-0.3223543090820313	5.8316171875	0		
0.011485074996948242	-0.0024739830493927003	0		0.48298422241210937	-2.348887939453125	0		-1.1716058349609375	0.19847634887695312	0		-0.5901661376953125	-2.6146572265625	0		1.797611083984375	-0.7336229248046875	0		3.313637451171875	0.31252499389648436	0		4.626259765625	0.4756536865234375	0		6.01429931640625	0.7493161010742188	0		-0.3231401062011719	5.8322666015625	0		
-0.0011329350471496582	0.0034103078842163087	0		0.4874868469238281	-2.339248779296875	0		-1.109510009765625	0.18519691467285157	0		-0.554856689453125	-2.618513671875	0		1.8326287841796876	-0.7534146118164062	0		3.2917548828125	0.30163470458984376	0		4.6216435546875	0.48253890991210935	0		6.01450244140625	0.74905517578125	0		-0.3230046997070313	5.83194580078125	0		
-0.02996207809448242	5.800480246543884E-4	0		0.44102053833007815	-2.32179736328125	0		-1.1883380126953125	0.1830939178466797	0		-0.58952880859375	-2.61526806640625	0		1.826740478515625	-0.7615455932617188	0		3.31995703125	0.30102593994140625	0		4.6359482421875	0.48917413330078124	0		6.013958984375	0.7523407592773438	0		-0.32293804931640624	5.83166943359375	0		
0.00906168270111084	-0.007234474182128906	0		0.5046441650390625	-2.35997412109375	0		-1.2013729248046876	0.17203645324707031	0		-0.585273193359375	-2.6115693359375	0		1.8248472900390624	-0.7646984252929687	0		3.320083740234375	0.3008780212402344	0		4.6342666015625	0.5020860900878906	0		6.02187451171875	0.7484519653320313	0		-0.3229424743652344	5.83143505859375	0		
-0.026728853225708008	0.003120600938796997	0		0.45795196533203125	-2.34644287109375	0		-1.1835499267578125	0.15655464172363281	0		-0.61297705078125	-2.59934814453125	0		1.8426005859375	-0.7861127319335938	0		3.333130126953125	0.300569580078125	0		4.6494140625	0.5087757263183593	0		6.02191015625	0.7483631591796875	0		-0.45631759643554687	5.81224658203125	0		
0.0022912859916687013	0.005537247180938721	0		0.5010180969238281	-2.344226806640625	0		-1.1158380126953125	0.13836375427246095	0		-0.5719055786132813	-2.597123779296875	0		1.848489013671875	-0.7933113403320312	0		3.3231787109375	0.305640380859375	0		4.64957763671875	0.521721923828125	0		6.01476025390625	0.7485836791992188	0		-0.337304931640625	5.82130078125	0		
-0.02684303283691406	0.002864933967590332	0		0.4709423828125	-2.345875	0		-1.1240372314453124	0.1313558349609375	0		-0.571949951171875	-2.597242431640625	0		1.8772127685546875	-0.8068193359375	0		3.333004638671875	0.3004441223144531	0		4.6494755859375	0.5216997680664063	0		6.02182373046875	0.748331787109375	0		-0.337505126953125	5.82118603515625	0		
0.023996038436889647	0.002027472019195557	0		0.4947493896484375	-2.351298583984375	0		-1.135493408203125	0.1114319839477539	0		-0.610756591796875	-2.576741455078125	0		1.8740115966796875	-0.81081396484375	0		3.319845703125	0.30062371826171874	0		4.653416015625	0.5286459350585937	0		6.019828125	0.789979736328125	0		-0.3377591247558594	5.8211083984375	0		
-0.02720628547668457	0.002753274917602539	0		0.4545676574707031	-2.35172998046875	0		-1.14192724609375	0.09646703338623047	0		-0.556975341796875	-2.5805986328125	0		1.877456298828125	-0.8348806762695312	0		3.32055810546875	0.29562246704101564	0		4.6572890625	0.534619384765625	0		6.01442822265625	0.748743896484375	0		-0.457209716796875	5.8118486328125	0		
0.03643117141723633	-0.0052133951187133785	0		0.517164794921875	-2.364674072265625	0		-1.1343896484375	0.08232315063476563	0		-0.5789161987304687	-2.562288330078125	0		1.8981556396484376	-0.8391761474609375	0		3.349329833984375	0.29722769165039065	0		4.66113525390625	0.5416178588867188	0		6.01424755859375	0.7488824462890625	0		-0.32227593994140624	5.82881005859375	0		
0.0013011670112609863	0.005326547145843506	0		0.5090801391601563	-2.35353125	0		-1.0728607177734375	0.06939830017089844	0		-0.5469577026367187	-2.548759521484375	0		1.888720458984375	-0.849996337890625	0		3.346072265625	0.2993368225097656	0		4.6659482421875	0.5486253662109375	0		6.01404443359375	0.7490612182617188	0		-0.3246118469238281	5.83085205078125	0		
0.022944250106811524	0.002037661075592041	0		0.5037001037597656	-2.3604091796875	0		-1.0844539794921875	0.05058895492553711	0		-0.5770781860351563	-2.53828076171875	0		1.88637841796875	-0.8528997192382812	0		3.324611328125	0.2897388610839844	0		4.6756298828125	0.5485819091796875	0		6.0232197265625	0.7697012939453125	0		-0.3250045166015625	5.83088720703125	0		
